HIERARCHY
ROOT reference
{
  OFFSET -65.3212 -1.93545 -120.338
  CHANNELS 6 Xposition Yposition Zposition Zrotation Xrotation Yrotation
  JOINT Hips
  {
    OFFSET 0 78.7191 0
    CHANNELS 6 Xposition Yposition Zposition Zrotation Xrotation Yrotation
    JOINT Chest
    {
      OFFSET 0 8.7983 -4.7612
      CHANNELS 6 Xposition Yposition Zposition Zrotation Xrotation Yrotation
      JOINT Chest2
      {
        OFFSET 0 8.0291 0.4195
        CHANNELS 6 Xposition Yposition Zposition Zrotation Xrotation Yrotation
        JOINT Chest3
        {
          OFFSET 0 9.9351 -2.2114
          CHANNELS 6 Xposition Yposition Zposition Zrotation Xrotation Yrotation
          JOINT Neck
          {
            OFFSET 0 22.3885 -0.4656
            CHANNELS 6 Xposition Yposition Zposition Zrotation Xrotation Yrotation
            JOINT Head
            {
              OFFSET -0.0001 12.643 3.4389
              CHANNELS 6 Xposition Yposition Zposition Zrotation Xrotation Yrotation
              End Site
              {
                OFFSET 0.0001 17.6655 0.5274
              }
            }
          }
          JOINT LeftCollar
          {
            OFFSET 2.2603 21.606 7.4023
            CHANNELS 6 Xposition Yposition Zposition Zrotation Xrotation Yrotation
            JOINT LeftShoulder
            {
              OFFSET 13.5163 -1.1332 -5.0146
              CHANNELS 6 Xposition Yposition Zposition Zrotation Xrotation Yrotation
              JOINT LeftElbow
              {
                OFFSET -0.0995 -28.05 -0.2431
                CHANNELS 6 Xposition Yposition Zposition Zrotation Xrotation Yrotation
                JOINT LeftWrist
                {
                  OFFSET 0.0679 -23.3996 -0.1402
                  CHANNELS 6 Xposition Yposition Zposition Zrotation Xrotation Yrotation
                  JOINT LeftFinger1
                  {
                    OFFSET 0.7932 -9.069 2.5189
                    CHANNELS 6 Xposition Yposition Zposition Zrotation Xrotation Yrotation
                    JOINT LeftFinger11
                    {
                      OFFSET -0.8272 -3.3923 0.5977
                      CHANNELS 6 Xposition Yposition Zposition Zrotation Xrotation Yrotation
                      JOINT LeftFinger12
                      {
                        OFFSET -0.5649 -2.3158 0.4082
                        CHANNELS 6 Xposition Yposition Zposition Zrotation Xrotation Yrotation
                        End Site
                        {
                          OFFSET -0.4919 -1.6479 0.2673
                        }
                      }
                    }
                  }
                  JOINT LeftFinger2
                  {
                    OFFSET 0.9159 -9.2044 0.2193
                    CHANNELS 6 Xposition Yposition Zposition Zrotation Xrotation Yrotation
                    JOINT LeftFinger21
                    {
                      OFFSET 0.0117 -4.1944 -0.0248
                      CHANNELS 6 Xposition Yposition Zposition Zrotation Xrotation Yrotation
                      JOINT LeftFinger22
                      {
                        OFFSET 0.0071 -2.3249 -0.0142
                        CHANNELS 6 Xposition Yposition Zposition Zrotation Xrotation Yrotation
                        End Site
                        {
                          OFFSET -0.1475 -2.0882 0.0028
                        }
                      }
                    }
                  }
                  JOINT LeftFinger3
                  {
                    OFFSET 0.6113 -8.7231 -2.0637
                    CHANNELS 6 Xposition Yposition Zposition Zrotation Xrotation Yrotation
                    JOINT LeftFinger31
                    {
                      OFFSET -0.1927 -3.8059 -0.2383
                      CHANNELS 6 Xposition Yposition Zposition Zrotation Xrotation Yrotation
                      JOINT LeftFinger32
                      {
                        OFFSET -0.1091 -2.1688 -0.1362
                        CHANNELS 6 Xposition Yposition Zposition Zrotation Xrotation Yrotation
                        End Site
                        {
                          OFFSET -0.2358 -1.9176 -0.0906
                        }
                      }
                    }
                  }
                  JOINT LeftFinger4
                  {
                    OFFSET -0.6151 -8.0947 -3.5641
                    CHANNELS 6 Xposition Yposition Zposition Zrotation Xrotation Yrotation
                    JOINT LeftFinger41
                    {
                      OFFSET -0.4882 -2.341 -0.6462
                      CHANNELS 6 Xposition Yposition Zposition Zrotation Xrotation Yrotation
                      JOINT LeftFinger42
                      {
                        OFFSET -0.3575 -1.7167 -0.4742
                        CHANNELS 6 Xposition Yposition Zposition Zrotation Xrotation Yrotation
                        End Site
                        {
                          OFFSET -0.4187 -1.5237 -0.3496
                        }
                      }
                    }
                  }
                  JOINT LeftFinger0
                  {
                    OFFSET -1.42 -1.8761 1.4223
                    CHANNELS 6 Xposition Yposition Zposition Zrotation Xrotation Yrotation
                    JOINT LeftFinger01
                    {
                      OFFSET -1.1471 -3.4929 2.6334
                      CHANNELS 6 Xposition Yposition Zposition Zrotation Xrotation Yrotation
                      JOINT LeftFinger02
                      {
                        OFFSET -0.823 -2.3 1.6571
                        CHANNELS 6 Xposition Yposition Zposition Zrotation Xrotation Yrotation
                        End Site
                        {
                          OFFSET -0.5822 -1.6914 1.1582
                        }
                      }
                    }
                  }
                }
              }
            }
          }
          JOINT RightCollar
          {
            OFFSET -2.2603 21.606 7.4023
            CHANNELS 6 Xposition Yposition Zposition Zrotation Xrotation Yrotation
            JOINT RightShoulder
            {
              OFFSET -13.5187 -1.1334 -5.0155
              CHANNELS 6 Xposition Yposition Zposition Zrotation Xrotation Yrotation
              JOINT RightElbow
              {
                OFFSET 0.0994 -28.0499 -0.2431
                CHANNELS 6 Xposition Yposition Zposition Zrotation Xrotation Yrotation
                JOINT RightWrist
                {
                  OFFSET -0.0679 -23.3996 -0.1402
                  CHANNELS 6 Xposition Yposition Zposition Zrotation Xrotation Yrotation
                  JOINT RightFinger1
                  {
                    OFFSET -0.7932 -9.0691 2.5189
                    CHANNELS 6 Xposition Yposition Zposition Zrotation Xrotation Yrotation
                    JOINT RightFinger11
                    {
                      OFFSET 0.8272 -3.3923 0.5977
                      CHANNELS 6 Xposition Yposition Zposition Zrotation Xrotation Yrotation
                      JOINT RightFinger12
                      {
                        OFFSET 0.565 -2.3158 0.4082
                        CHANNELS 6 Xposition Yposition Zposition Zrotation Xrotation Yrotation
                        End Site
                        {
                          OFFSET 0.4919 -1.6479 0.2673
                        }
                      }
                    }
                  }
                  JOINT RightFinger2
                  {
                    OFFSET -0.916 -9.2044 0.2193
                    CHANNELS 6 Xposition Yposition Zposition Zrotation Xrotation Yrotation
                    JOINT RightFinger21
                    {
                      OFFSET -0.0117 -4.1944 -0.0248
                      CHANNELS 6 Xposition Yposition Zposition Zrotation Xrotation Yrotation
                      JOINT RightFinger22
                      {
                        OFFSET -0.0071 -2.3249 -0.0142
                        CHANNELS 6 Xposition Yposition Zposition Zrotation Xrotation Yrotation
                        End Site
                        {
                          OFFSET 0.1475 -2.0882 0.0028
                        }
                      }
                    }
                  }
                  JOINT RightFinger3
                  {
                    OFFSET -0.6113 -8.7231 -2.0637
                    CHANNELS 6 Xposition Yposition Zposition Zrotation Xrotation Yrotation
                    JOINT RightFinger31
                    {
                      OFFSET 0.1927 -3.8059 -0.2383
                      CHANNELS 6 Xposition Yposition Zposition Zrotation Xrotation Yrotation
                      JOINT RightFinger32
                      {
                        OFFSET 0.1091 -2.1688 -0.1362
                        CHANNELS 6 Xposition Yposition Zposition Zrotation Xrotation Yrotation
                        End Site
                        {
                          OFFSET 0.2358 -1.9176 -0.0906
                        }
                      }
                    }
                  }
                  JOINT RightFinger4
                  {
                    OFFSET 0.6151 -8.0947 -3.564
                    CHANNELS 6 Xposition Yposition Zposition Zrotation Xrotation Yrotation
                    JOINT RightFinger41
                    {
                      OFFSET 0.4882 -2.341 -0.6462
                      CHANNELS 6 Xposition Yposition Zposition Zrotation Xrotation Yrotation
                      JOINT RightFinger42
                      {
                        OFFSET 0.3574 -1.7166 -0.4742
                        CHANNELS 6 Xposition Yposition Zposition Zrotation Xrotation Yrotation
                        End Site
                        {
                          OFFSET 0.4187 -1.5237 -0.3496
                        }
                      }
                    }
                  }
                  JOINT RightFinger0
                  {
                    OFFSET 1.4199 -1.8761 1.4221
                    CHANNELS 6 Xposition Yposition Zposition Zrotation Xrotation Yrotation
                    JOINT RightFinger01
                    {
                      OFFSET 1.1472 -3.4929 2.6336
                      CHANNELS 6 Xposition Yposition Zposition Zrotation Xrotation Yrotation
                      JOINT RightFinger02
                      {
                        OFFSET 0.8229 -2.3 1.6571
                        CHANNELS 6 Xposition Yposition Zposition Zrotation Xrotation Yrotation
                        End Site
                        {
                          OFFSET 0.5822 -1.6914 1.1582
                        }
                      }
                    }
                  }
                }
              }
            }
          }
        }
      }
    }
    JOINT RightHip
    {
      OFFSET -9.412 3.9771 -0.7758
      CHANNELS 6 Xposition Yposition Zposition Zrotation Xrotation Yrotation
      JOINT RightKnee
      {
        OFFSET -0.7531 -40.938 0
        CHANNELS 6 Xposition Yposition Zposition Zrotation Xrotation Yrotation
        JOINT RightAnkle
        {
          OFFSET 0 -40.1986 0
          CHANNELS 6 Xposition Yposition Zposition Zrotation Xrotation Yrotation
          JOINT RightToe
          {
            OFFSET 0 -4.4182 9.239
            CHANNELS 6 Xposition Yposition Zposition Zrotation Xrotation Yrotation
            End Site
            {
              OFFSET 0 0 6.1981
            }
          }
        }
      }
    }
    JOINT LeftHip
    {
      OFFSET 9.4119 3.9773 -0.7758
      CHANNELS 6 Xposition Yposition Zposition Zrotation Xrotation Yrotation
      JOINT LeftKnee
      {
        OFFSET 0.7532 -40.9383 0
        CHANNELS 6 Xposition Yposition Zposition Zrotation Xrotation Yrotation
        JOINT LeftAnkle
        {
          OFFSET 0 -40.1986 0
          CHANNELS 6 Xposition Yposition Zposition Zrotation Xrotation Yrotation
          JOINT LeftToe
          {
            OFFSET 0 -4.4182 9.239
            CHANNELS 6 Xposition Yposition Zposition Zrotation Xrotation Yrotation
            End Site
            {
              OFFSET 0 0 6.1981
            }
          }
        }
      }
    }
  }
}
MOTION
Frames:	4
Frame Time:	0.0333333
-38.296 -3.48346 -49.6352 0 0 -0 7.10543e-015 78.7191 0 -0.635291 6.14514 101.884 0 8.7983 -4.7612 -0.000406319 -2.1529 1.0218 0 8.0291 0.4195 0.0376645 -4.30548 2.04555 0 9.9351 -2.2114 0.0376674 -4.30547 2.04557 0 22.3885 -0.4656 -0.570286 13.6138 -8.57105 -0.0001 12.643 3.4389 -6.33127 -1.09969 -8.81141 2.2603 21.606 7.4023 0.495368 0.858211 -4.26325 13.5163 -1.1332 -5.0146 4.06291 31.659 27.2195 -0.0995 -28.05 -0.2431 -10.3716 -22.1164 -10.3206 0.0679 -23.3996 -0.1402 -12.0599 1.40854 41.7648 0.7932 -9.069 2.5189 -5.93491e-005 -0.000106666 -0.00225032 -0.8272 -3.3923 0.5977 0.000315299 -5.49134e-005 -0.000237518 -0.5649 -2.3158 0.4082 -0.000170745 8.04474e-005 2.59324e-005 0.9159 -9.2044 0.2193 2.03448 -1.26685 0.222421 0.0117 -4.1944 -0.0248 -0.167763 -0.876192 0.196073 0.0071 -2.3249 -0.0142 2.03555 -1.26783 0.222684 0.6113 -8.7231 -2.0637 2.14057 -6.28968 2.63719 -0.1927 -3.8059 -0.2383 -0.361932 -2.21292 0.750569 -0.1091 -2.1688 -0.1362 4.5101 -3.05779 0.715173 -0.6151 -8.0947 -3.5641 11.4138 -7.3443 2.60394 -0.4882 -2.341 -0.6462 -0.0648992 -1.73709 1.50186 -0.3575 -1.7167 -0.4742 2.78869 -1.86624 0.506472 -1.42 -1.8761 1.4223 0.0115953 -0.00868795 -0.00282302 -1.1471 -3.4929 2.6334 -0.000136411 9.31719e-005 0.00026787 -0.823 -2.3 1.6571 -0.000187443 4.8426e-005 -5.56464e-006 -2.2603 21.606 7.4023 -44.4631 -1.14141 12.5988 -13.5187 -1.1334 -5.0155 -93.0619 9.48942 -52.0582 0.0994 -28.0499 -0.2431 -3.49759 -25.8489 -35.2543 -0.0679 -23.3996 -0.1402 5.23132 6.57238 -23.1156 -0.7932 -9.0691 2.5189 -26.2942 9.87707 9.07625 0.8272 -3.3923 0.5977 39.4241 12.0338 -4.97717 0.565 -2.3158 0.4082 38.7304 11.8651 -4.82267 -0.916 -9.2044 0.2193 -2.23347 10.2466 5.04789 -0.0117 -4.1944 -0.0248 52.3751 15.6205 -6.40191 -0.0071 -2.3249 -0.0142 44.0892 13.7161 -4.48627 -0.6113 -8.7231 -2.0637 15.0062 7.58877 -5.70077 0.1927 -3.8059 -0.2383 37.2883 13.8496 -2.53193 0.1091 -2.1688 -0.1362 38.5715 14.2637 -2.77361 0.6151 -8.0947 -3.564 23.0531 4.39134 -8.93112 0.4882 -2.341 -0.6462 30.7534 11.5467 -0.514469 0.3574 -1.7166 -0.4742 30.6849 11.5225 -0.506222 1.4199 -1.8761 1.4221 7.90906 0.879268 52.6243 1.1472 -3.4929 2.6336 -0.671212 1.52909 0.488999 0.8229 -2.3 1.6571 -4.02431 8.62949 3.04557 -9.412 3.9771 -0.7758 -4.16407 -16.8119 45.6074 -0.7531 -40.938 -7.10543e-015 14.7125 47.0033 -7.84164 0 -40.1986 3.55271e-015 -14.3925 -3.17527 -22.4258 0 -4.4182 9.239 25.285 -3.25479 -8.10981 9.4119 3.9773 -0.7758 -22.7053 3.30625 -2.0269 0.7532 -40.9383 -7.10543e-015 0.454211 -0.00029885 0.620536 -7.10543e-015 -40.1986 7.10543e-015 8.83028 -2.41835 -5.44712 7.10543e-015 -4.4182 9.239 5.77401 5.0089 -0.798823 
-38.2511 -3.50895 -49.7292 0 0 -0 7.10543e-015 78.7191 0 -0.618044 6.21432 102.51 0 8.7983 -4.7612 0.00257755 -2.14652 0.899581 0 8.0291 0.4195 0.0389533 -4.29273 1.8012 -1.42109e-014 9.9351 -2.2114 0.038948 -4.29272 1.80116 0 22.3885 -0.4656 -0.53846 13.6142 -8.47222 -0.0001 12.643 3.4389 -6.24529 -1.03556 -8.70334 2.2603 21.606 7.4023 0.528692 0.885629 -3.92041 13.5163 -1.1332 -5.0146 4.23022 31.6817 27.1449 -0.0995 -28.05 -0.2431 -10.3001 -22.263 -10.5392 0.0679 -23.3996 -0.1402 -12.5629 1.52155 43.2164 0.7932 -9.069 2.5189 0.0854428 -0.114245 0.0124717 -0.8272 -3.3923 0.5977 0.000609845 -0.0443028 -0.0147767 -0.5649 -2.3158 0.4082 0.102799 -0.06397 0.00560664 0.9159 -9.2044 0.2193 2.12095 -1.32246 0.233004 0.0117 -4.1944 -0.0248 -0.174308 -0.914068 0.203662 0.0071 -2.3249 -0.0142 2.123 -1.32203 0.233224 0.6113 -8.7231 -2.0637 2.22478 -6.30938 2.63347 -0.1927 -3.8059 -0.2383 -0.366807 -2.24579 0.759996 -0.1091 -2.1688 -0.1362 4.57633 -3.10201 0.727405 -0.6151 -8.0947 -3.5641 11.4768 -7.29657 2.57741 -0.4882 -2.341 -0.6462 -0.0656186 -1.76862 1.527 -0.3575 -1.7167 -0.4742 2.85951 -1.90496 0.495472 -1.42 -1.8761 1.4223 -0.0404948 -0.0806576 0.0133104 -1.1471 -3.4929 2.6334 -0.000122411 0.000101664 0.00026748 -0.823 -2.3 1.6571 -0.033889 -0.0446741 0.00928722 -2.2603 21.606 7.4023 -44.4628 -1.13948 12.5802 -13.5187 -1.1334 -5.0155 -93.6023 9.70256 -51.7253 0.0994 -28.0499 -0.2431 -2.91746 -25.5221 -33.9246 -0.0679 -23.3996 -0.1402 5.25591 6.18185 -24.4958 -0.7932 -9.0691 2.5189 -26.2942 9.87706 9.07627 0.8272 -3.3923 0.5977 39.4241 12.0338 -4.97718 0.565 -2.3158 0.4082 38.7304 11.8651 -4.82265 -0.916 -9.2044 0.2193 -2.23347 10.2466 5.04791 -0.0117 -4.1944 -0.0248 52.3751 15.6205 -6.40191 -0.0071 -2.3249 -0.0142 44.0893 13.7161 -4.4863 -0.6113 -8.7231 -2.0637 15.0063 7.58877 -5.70075 0.1927 -3.8059 -0.2383 37.2883 13.8496 -2.53194 0.1091 -2.1688 -0.1362 38.5715 14.2637 -2.77359 0.6151 -8.0947 -3.564 23.0531 4.39135 -8.93109 0.4882 -2.341 -0.6462 30.7535 11.5468 -0.514471 0.3574 -1.7166 -0.4742 30.685 11.5225 -0.506236 1.4199 -1.8761 1.4221 7.90909 0.879287 52.6244 1.1472 -3.4929 2.6336 -0.671203 1.52909 0.48901 0.8229 -2.3 1.6571 -4.02432 8.62952 3.04558 -9.412 3.9771 -0.7758 -4.20034 -16.7281 45.8463 -0.7531 -40.938 -7.10543e-015 15.303 47.4853 -8.18133 0 -40.1986 3.55271e-015 -13.4431 -2.96447 -21.1737 7.10543e-015 -4.4182 9.239 25.1425 -3.5341 -7.75298 9.4119 3.9773 -0.7758 -22.7317 3.53227 -2.00741 0.7532 -40.9383 7.10543e-015 0.38612 -0.000305892 0.316546 7.10543e-015 -40.1986 7.10543e-015 9.03709 -2.4734 -5.7107 7.10543e-015 -4.4182 9.239 5.72364 5.0022 -0.793606 
-38.1393 -3.53006 -49.8166 0 0 -0 7.10543e-015 78.7191 0 -0.560816 6.23425 103.175 0 8.7983 -4.7612 0.00625214 -2.1449 0.758778 0 8.0291 0.4195 0.0409878 -4.28951 1.51935 1.42109e-014 9.9351 -2.2114 0.0409907 -4.28952 1.51936 1.42109e-014 22.3885 -0.4656 -0.50095 13.741 -8.42989 -0.0001 12.643 3.4389 -5.99788 -0.988656 -8.55656 2.2603 21.606 7.4023 0.569591 0.914602 -3.5209 13.5163 -1.1332 -5.0146 4.50281 31.901 27.1437 -0.0995 -28.05 -0.2431 -10.3744 -22.6504 -10.8753 0.0679 -23.3996 -0.1402 -13.5337 1.74249 44.5385 0.7932 -9.069 2.5189 0.324139 -0.433414 0.048757 -0.8272 -3.3923 0.5977 -0.00792572 -0.166359 -0.0577569 -0.5649 -2.3158 0.4082 0.390285 -0.242668 0.0217881 0.9159 -9.2044 0.2193 2.36253 -1.47742 0.262961 0.0117 -4.1944 -0.0248 -0.192634 -1.01989 0.224458 0.0071 -2.3249 -0.0142 2.37447 -1.47415 0.259 0.6113 -8.7231 -2.0637 2.45986 -6.36426 2.62349 -0.1927 -3.8059 -0.2383 -0.38043 -2.33762 0.786045 -0.1091 -2.1688 -0.1362 4.76133 -3.22541 0.761849 -0.6151 -8.0947 -3.5641 11.6472 -7.1462 2.49017 -0.4882 -2.341 -0.6462 -0.0674538 -1.85681 1.59689 -0.3575 -1.7167 -0.4742 3.08238 -2.05066 0.534564 -1.42 -1.8761 1.4223 -0.185154 -0.282469 0.05586 -1.1471 -3.4929 2.6334 -0.000140354 0.000108737 0.000283696 -0.823 -2.3 1.6571 -0.105135 -0.175293 0.033325 -2.2603 21.606 7.4023 -44.4618 -1.13407 12.5259 -13.5187 -1.1334 -5.0155 -93.9737 9.87545 -51.3429 0.0994001 -28.0499 -0.2431 -2.3891 -25.3593 -32.569 -0.0679 -23.3996 -0.1402 5.17573 5.82728 -25.8795 -0.793201 -9.0691 2.5189 -26.2942 9.87707 9.07626 0.827201 -3.3923 0.5977 39.4241 12.0338 -4.97716 0.565001 -2.3158 0.4082 38.7304 11.8651 -4.82266 -0.916001 -9.2044 0.2193 -2.23349 10.2466 5.04792 -0.0117 -4.1944 -0.0248 52.3751 15.6205 -6.4019 -0.0071 -2.3249 -0.0142 44.0893 13.7161 -4.48628 -0.611301 -8.7231 -2.0637 15.0062 7.58876 -5.70076 0.1927 -3.8059 -0.2383 37.2883 13.8496 -2.53192 0.1091 -2.1688 -0.1362 38.5715 14.2637 -2.77357 0.615101 -8.0947 -3.564 23.0531 4.39135 -8.93111 0.4882 -2.341 -0.6462 30.7534 11.5467 -0.514468 0.3574 -1.7166 -0.4742 30.685 11.5225 -0.506204 1.4199 -1.8761 1.4221 7.90908 0.879302 52.6244 1.1472 -3.4929 2.6336 -0.67122 1.52908 0.48901 0.822901 -2.3 1.6571 -4.02432 8.6295 3.04558 -9.412 3.9771 -0.7758 -4.03645 -16.572 45.8117 -0.7531 -40.938 7.10543e-015 16.2185 48.3635 -8.92074 0 -40.1986 3.55271e-015 -11.4559 -2.78492 -19.7182 0 -4.4182 9.239 22.5687 -2.26288 -7.14406 9.4119 3.9773 -0.7758 -22.6954 3.84204 -1.95305 0.7532 -40.9383 0 0.316967 -0.000199066 0.0126517 -1.42109e-014 -40.1986 0 9.21705 -2.58116 -6.03013 -7.10543e-015 -4.4182 9.239 5.6733 4.99548 -0.788412 
-37.9701 -3.5474 -49.8922 0 0 -0 7.10543e-015 78.7191 0 -0.465912 6.21944 103.729 0 8.7983 -4.7612 0.0130101 -2.15489 0.643079 0 8.0291 0.4195 0.0503059 -4.30948 1.28807 0 9.9351 -2.2114 0.0503033 -4.30949 1.28805 0 22.3885 -0.4656 -0.467823 13.9821 -8.45075 -0.0001 12.643 3.4389 -5.72846 -0.882198 -8.42448 2.2603 21.606 7.4023 0.649932 0.946145 -3.08636 13.5163 -1.1332 -5.0146 4.8353 32.2161 27.2139 -0.0995 -28.05 -0.2431 -10.4294 -23.1119 -11.1396 0.0679 -23.3996 -0.1402 -14.7509 1.87744 46.2777 0.7932 -9.069 2.5189 0.686577 -0.917482 0.103499 -0.8272 -3.3923 0.5977 -0.0211732 -0.351004 -0.12415 -0.5649 -2.3158 0.4082 0.826356 -0.513522 0.0480492 0.9159 -9.2044 0.2193 2.72921 -1.71205 0.309646 0.0117 -4.1944 -0.0248 -0.220211 -1.18058 0.254994 0.0071 -2.3249 -0.0142 2.73775 -1.70234 0.309754 0.6113 -8.7231 -2.0637 2.81662 -6.44737 2.60945 -0.1927 -3.8059 -0.2383 -0.400955 -2.47707 0.824899 -0.1091 -2.1688 -0.1362 5.0421 -3.41233 0.814869 -0.6151 -8.0947 -3.5641 11.9064 -6.91737 2.3596 -0.4882 -2.341 -0.6462 -0.0701853 -1.99105 1.70229 -0.3575 -1.7167 -0.4742 3.42465 -2.28648 0.634196 -1.42 -1.8761 1.4223 -0.403913 -0.589511 0.118736 -1.1471 -3.4929 2.6334 -0.000133777 0.000107448 0.000302727 -0.823 -2.3 1.6571 -0.270547 -0.35907 0.0738173 -2.2603 21.606 7.4023 -44.46 -1.12533 12.4409 -13.5187 -1.1334 -5.0155 -94.1843 10.0384 -50.9076 0.0994 -28.0499 -0.2431 -1.90339 -25.4257 -31.1939 -0.0679 -23.3996 -0.1402 4.99058 5.5795 -27.2164 -0.793201 -9.0691 2.5189 -26.2942 9.87707 9.07628 0.827201 -3.3923 0.5977 39.4241 12.0338 -4.97716 0.565001 -2.3158 0.4082 38.7304 11.8651 -4.82266 -0.916001 -9.2044 0.2193 -2.23347 10.2466 5.04798 -0.0117 -4.1944 -0.0248 52.3751 15.6205 -6.4019 -0.00710001 -2.3249 -0.0142 44.0892 13.7161 -4.48628 -0.6113 -8.7231 -2.0637 15.0063 7.58876 -5.70076 0.1927 -3.8059 -0.2383 37.2883 13.8496 -2.53192 0.1091 -2.1688 -0.1362 38.5715 14.2637 -2.77357 0.615101 -8.0947 -3.564 23.0531 4.39134 -8.93109 0.4882 -2.341 -0.6462 30.7535 11.5468 -0.514471 0.3574 -1.7166 -0.4742 30.685 11.5225 -0.50622 1.4199 -1.8761 1.4221 7.9091 0.879298 52.6244 1.1472 -3.4929 2.6336 -0.671214 1.52907 0.489013 0.822901 -2.3 1.6571 -4.02432 8.62949 3.04558 -9.412 3.9771 -0.7758 -3.61804 -16.4945 45.5249 -0.7531 -40.938 0 17.4359 49.874 -10.0605 0 -40.1986 -1.06581e-014 -9.26186 -2.75987 -18.48 0 -4.4182 9.239 16.9877 1.66785 -6.72258 9.4119 3.9773 -0.7758 -22.6253 4.14019 -1.87193 0.7532 -40.9383 0 0.264599 0.0987872 -0.209652 -7.10543e-015 -40.1986 -1.42109e-014 9.36664 -2.79078 -6.3315 0 -4.4182 9.239 5.62293 4.98876 -0.783213 
